<?xml version="1.0" standalone="no"?>
<!DOCTYPE svg PUBLIC "-//W3C//DTD SVG 20010904//EN"
 "http://www.w3.org/TR/2001/REC-SVG-20010904/DTD/svg10.dtd">
<svg version="1.0" xmlns="http://www.w3.org/2000/svg"
 width="250.000000pt" height="250.000000pt" viewBox="0 0 250.000000 250.000000"
 preserveAspectRatio="xMidYMid meet">
<metadata>
Created by potrace 1.11, written by Peter Selinger 2001-2013
</metadata>
<g transform="translate(0.000000,250.000000) scale(0.100000,-0.100000)"
fill="#000000" stroke="none">
<path d="M0 1250 l0 -1250 1250 0 1250 0 0 1250 0 1250 -1250 0 -1250 0 0
-1250z m1589 714 c34 -20 61 -38 61 -41 0 -8 -164 -80 -255 -112 -112 -40
-275 -82 -441 -115 -191 -37 -173 -40 -212 27 -19 32 -33 59 -31 62 2 2 74 15
159 30 255 44 522 118 618 170 36 19 32 20 101 -21z m82 -190 c34 -20 56 -40
53 -46 -12 -18 -187 -96 -310 -137 -66 -21 -175 -53 -244 -69 -132 -32 -351
-75 -354 -70 -25 33 -66 121 -60 127 5 4 72 17 149 30 248 41 568 130 665 186
34 20 35 20 101 -21z m124 -180 c33 -20 61 -37 63 -39 5 -4 -87 -54 -163 -88
-38 -17 -126 -50 -195 -73 l-125 -42 -3 -81 -3 -81 206 0 205 0 0 -70 0 -70
-205 0 -205 0 0 -104 0 -105 44 -6 c24 -4 144 -5 265 -3 173 2 221 0 221 -10
0 -7 -8 -40 -17 -74 l-17 -61 -251 6 c-459 12 -550 32 -663 147 -27 28 -52 50
-55 50 -3 0 -14 -15 -24 -33 -24 -40 -141 -177 -152 -177 -4 0 -32 22 -62 49
l-54 49 57 59 c97 102 178 252 178 329 0 13 3 25 8 27 7 5 133 -10 139 -17 2
-2 -3 -36 -11 -77 l-16 -73 26 -33 c45 -59 128 -111 203 -128 l31 -7 0 227 0
227 -27 -7 c-42 -10 -352 -72 -398 -79 l-40 -6 -37 65 c-42 75 -56 64 112 91
329 51 706 154 860 235 19 10 37 18 40 19 3 0 32 -16 65 -36z"/>
</g>
</svg>
