<?xml version="1.0" standalone="no"?>
<!DOCTYPE svg PUBLIC "-//W3C//DTD SVG 20010904//EN"
 "http://www.w3.org/TR/2001/REC-SVG-20010904/DTD/svg10.dtd">
<svg version="1.0" xmlns="http://www.w3.org/2000/svg"
 width="500.000000pt" height="500.000000pt" viewBox="0 0 500.000000 500.000000"
 preserveAspectRatio="xMidYMid meet">
<metadata>
Created by potrace 1.11, written by Peter Selinger 2001-2013
</metadata>
<g transform="translate(0.000000,500.000000) scale(0.100000,-0.100000)"
fill="#000000" stroke="none">
<path d="M0 2500 l0 -2500 2500 0 2500 0 0 2500 0 2500 -2500 0 -2500 0 0
-2500z m3458 1158 c38 -67 49 -94 40 -99 -7 -4 -62 -22 -123 -38 -207 -58
-460 -90 -724 -94 l-144 -2 -28 85 c-16 46 -29 89 -29 96 0 8 39 14 128 19
206 10 359 25 487 46 114 19 314 65 324 74 10 11 18 0 69 -87z m-1408 17 l0
-65 165 0 165 0 0 -100 0 -100 -165 0 -165 0 0 -50 0 -50 140 0 140 0 0 -100
0 -100 -140 0 -140 0 0 -55 0 -55 180 0 180 0 0 -100 0 -100 -505 0 -505 0 0
100 0 100 200 0 200 0 0 55 0 55 -150 0 -151 0 3 98 3 97 148 3 148 3 -3 47
-3 47 -172 3 -173 2 0 100 0 100 175 0 175 0 0 65 0 65 125 0 125 0 0 -65z
m1380 -230 c50 -25 90 -48 90 -50 0 -12 -83 -166 -128 -240 l-50 -80 59 -3 59
-3 0 -194 0 -195 60 0 60 0 0 -115 0 -115 -60 0 -60 0 0 -205 0 -205 -209 0
-208 0 -5 -170 c-5 -155 -7 -174 -29 -217 -19 -36 -36 -53 -72 -72 -43 -22
-64 -25 -201 -29 l-153 -5 -17 79 c-10 44 -21 93 -26 111 l-8 32 117 -6 c152
-8 151 -9 151 159 l0 118 -170 0 -170 0 0 110 0 110 170 0 170 0 0 95 0 95
-190 0 -191 0 3 113 3 112 188 3 187 2 0 85 0 85 -155 0 -155 0 0 110 0 110
35 0 c19 0 35 5 35 11 0 15 -77 197 -96 226 -13 21 -11 22 79 52 51 17 96 31
100 31 10 0 103 -192 112 -231 6 -25 2 -29 -57 -57 l-63 -30 128 -1 c99 -1
127 2 127 12 0 19 -45 127 -87 210 -19 38 -33 70 -31 72 2 1 45 16 96 33 l92
31 30 -59 c33 -65 90 -205 90 -220 0 -5 -30 -24 -67 -42 l-68 -33 73 -3 c39
-2 104 -2 144 0 l72 3 -52 35 c-50 34 -62 53 -42 65 19 12 107 149 149 233 23
45 44 82 46 82 3 0 46 -20 95 -45z m-1082 -1247 c-3 -439 -5 -507 -19 -538
-37 -79 -96 -107 -248 -116 -110 -7 -110 -7 -120 17 -10 22 -51 179 -51 193 0
3 35 3 78 -1 99 -7 112 2 112 88 l0 59 -180 0 -180 0 0 -180 0 -180 -125 0
-125 0 0 580 0 580 431 0 430 0 -3 -502z"/>
<path d="M3040 2765 l0 -85 95 0 95 0 0 85 0 85 -95 0 -95 0 0 -85z"/>
<path d="M3040 2355 l0 -95 95 0 95 0 0 95 0 95 -95 0 -95 0 0 -95z"/>
<path d="M1740 2440 l0 -60 180 0 180 0 0 60 0 60 -180 0 -180 0 0 -60z"/>
<path d="M1740 2140 l0 -60 180 0 180 0 0 60 0 60 -180 0 -180 0 0 -60z"/>
</g>
</svg>
